<svg xmlns="http://www.w3.org/2000/svg" version="1.1" xmlns:xlink="http://www.w3.org/1999/xlink" width="1500" height="1500" viewBox="0 0 1500 1500"><rect width="1500" height="1500" x="0" y="0" id="background" stroke="transparent" fill="#7a26c1"></rect><svg xml:space="preserve" width="1000" height="1000" data-version="2" data-id="lg_vXAJ7PawE2ja52Qih2" viewBox="0 0 561 298" x="250" y="250"><rect width="100%" height="100%" fill="transparent"></rect><path fill="#fff" d="M57.55 209.61 46.27 240.4l-4.89 2.39-7.47-22.13-7 19.74-4.89 2.39-12.08-33.27-4.47-2.68.94-1.88h12.88v1.46L15.86 209l9.78 27.54 7-19.55-2.54-7.52-4.32-2.63.94-1.88h13.82v1.46l-4.19 3.24 8.74 26.79 9.69-26.79-8.37-2.82.94-1.88h14.29v1.46Z"></path><rect width="56.17" height="37.83" x="-28.09" y="-18.91" fill="none" rx="0" ry="0" transform="translate(34.05 224.38)"></rect><path fill="#fff" d="M96.89 241.9H82.6v-1.46l4.42-3.43-3.62-8.69H67.61l-3.86 8.88 8.28 2.82-.94 1.88H56.8v-1.46l4.42-3.47 13.3-30.51 4.88-2.39 13.73 33.08 4.7 2.87Zm-21.2-32.19-7.14 16.49h14Z"></path><rect width="41.03" height="37.83" x="-20.52" y="-18.91" fill="none" rx="0" ry="0" transform="translate(77.81 223.49)"></rect><path fill="#fff" d="M128.85 241.9h-28.2v-1.46l4.42-3.47v-28.49l-4.89-1.64.94-1.88h14.29v1.46l-4.47 3.47v29.9h12.13l6.91-10.2 1.41.47v12.69Z"></path><rect width="31.21" height="37.79" x="-15.61" y="-18.89" fill="none" rx="0" ry="0" transform="translate(116.28 224.35)"></rect><path fill="#fff" d="M165.7 241.9h-28.2v-1.46l4.41-3.47v-28.49l-4.88-1.64.94-1.88h14.28v1.46l-4.46 3.47v29.9h12.13l6.9-10.2 1.41.47v12.69Z"></path><rect width="31.2" height="37.79" x="-15.6" y="-18.89" fill="none" rx="0" ry="0" transform="translate(153.13 224.35)"></rect><path fill="#fff" d="M202.54 241.9h-28.2v-1.46l4.42-3.47v-28.49l-4.89-1.64.94-1.88h27.26l2.54-.85v10.81l-1.41.47-5.59-8.32h-12.97v14.9h7.38l3.43-6.01h1.45v14.29l-1.88.94-2.96-7.1h-7.42v15.7h12.78l6.25-9.26 1.41.47v11.75Z"></path><rect width="31.21" height="38.64" x="-15.61" y="-19.32" fill="none" rx="0" ry="0" transform="translate(189.97 223.93)"></rect><path fill="#fff" d="m245.6 215.86-1.41.47-6.25-9.26h-5.74v31.26l4.94 1.69-.94 1.88h-14.29v-1.46l4.42-3.47v-29.9h-5.6l-6.25 9.26-1.41-.47v-11.75l2.54.85h27.45l2.54-.85Z"></path><rect width="32.53" height="37.79" x="-16.27" y="-18.89" fill="none" rx="0" ry="0" transform="translate(229.84 223.5)"></rect><path fill="#fff" d="M309.28 241.95h-14.29v-1.46l4.42-3.48v-25.99l-12.55 30.93h-2.58l-12.46-31.26v26.89l4.94 2.49-.94 1.88h-11v-1.46l4.42-3.48v-27.54l-4.89-2.63.94-1.88h10.2l11.75 29.52 11.7-29.52h10.81v1.46l-4.46 3.47v28.44l4.93 1.74Z"></path><rect width="45.87" height="36.99" x="-22.93" y="-18.5" fill="none" rx="0" ry="0" transform="translate(287.79 223.96)"></rect><path fill="#fff" d="M352.52 241.9h-14.29v-1.46l4.42-3.43-3.62-8.69h-15.79l-3.85 8.88 8.27 2.82-.94 1.88h-14.29v-1.46l4.42-3.47 13.3-30.51 4.89-2.39 13.72 33.08 4.7 2.87Zm-21.2-32.19-7.14 16.49h14.01Z"></path><rect width="41.03" height="37.83" x="-20.52" y="-18.91" fill="none" rx="0" ry="0" transform="translate(333.44 223.49)"></rect><path fill="#fff" d="M388.19 209.94v32.01h-2.58l-22.33-28.25v23.88l4.94 2.49-.94 1.88h-11v-1.46l4.42-3.48v-27.54l-4.89-2.63.94-1.88h7.1l21.76 27.54v-23.22l-4.89-2.44.94-1.88h11v1.5Z"></path><rect width="36.85" height="36.99" x="-18.43" y="-18.5" fill="none" rx="0" ry="0" transform="translate(374.74 223.96)"></rect><path fill="#fff" d="M434.49 241.9H420.2v-1.46l4.42-3.43-3.62-8.69h-15.79l-3.86 8.88 8.28 2.82-.94 1.88H394.4v-1.46l4.42-3.47 13.3-30.51 4.89-2.39 13.72 33.08 4.7 2.87Zm-21.2-32.19-7.14 16.49h14Z"></path><rect width="41.03" height="37.83" x="-20.52" y="-18.91" fill="none" rx="0" ry="0" transform="translate(415.42 223.49)"></rect><path fill="#fff" d="m471.62 234.48 1.27 2.02-8.65 5.31q-1.97.61-3.83.82-1.86.21-3.97.21-5.22 0-9.24-2.4-4.02-2.39-6.25-6.6-2.23-4.21-2.23-9.56 0-5.5 3.34-10.18 3.33-4.68 8.32-7.38 4.98-2.7 9.49-2.7 2.68 0 6.25.7 3.57.71 5.22 1.51v9.12h-1.79q-4.7-7.38-12.41-7.38-3.38 0-6.15 1.81-2.78 1.81-4.35 5.03-1.58 3.22-1.58 7.21 0 4.61 1.53 8.41 1.53 3.81 4.68 6.11 3.15 2.31 7.8 2.31 2.07 0 3.43-.14 1.36-.15 3.24-.9v-11.09l-7.23-2.02.94-1.88h16.63v1.46l-4.46 3.52Z"></path><rect width="37.36" height="38.82" x="-18.68" y="-19.41" fill="none" rx="0" ry="0" transform="translate(457.9 223.93)"></rect><path fill="#fff" d="M509.22 241.9h-28.2v-1.46l4.42-3.47v-28.49l-4.89-1.64.94-1.88h27.26l2.54-.85v10.81l-1.41.47-5.6-8.32h-12.97v14.9h7.38l3.43-6.01h1.46v14.29l-1.88.94-2.96-7.1h-7.43v15.7h12.79l6.25-9.26 1.41.47v11.75Z"></path><rect width="31.21" height="38.64" x="-15.61" y="-19.32" fill="none" rx="0" ry="0" transform="translate(496.65 223.93)"></rect><path fill="#fff" d="M553.59 242h-8.74l-10.34-16.69-2.21-1.6.7-1.41h2.63q3.2 0 5.06-1.62 1.85-1.62 1.85-4.44 0-3.71-2.07-6.18-2.06-2.47-6.01-2.47-2.63 0-4.84 1.55v29.28l4.93 1.7-.94 1.88h-14.29v-1.46l4.42-3.48v-28.58l-4.89-1.59.94-1.88h5.46q4.27 0 8.41-.29 3.01-.18 4.46-.18 3.15 0 5.62 1.27 2.47 1.26 3.81 3.43 1.34 2.16 1.34 4.74 0 2.35-1.46 4.49t-3.83 3.71q-2.37 1.58-5.01 2.38l3.06 1.03 7.28 11.75 5.6 2.78Z"></path><rect width="35.68" height="37.46" x="-17.84" y="-18.73" fill="none" rx="0" ry="0" transform="translate(537.19 223.77)"></rect><path fill="#fff" d="M182.61 279.11q3.72 0 3.72 3.39 0 1.65-.93 2.51-.93.87-2.79.87h-2.52v4.6h-1.45v-11.37zm2.24 3.39q0-1.11-.56-1.61-.55-.5-1.68-.5h-2.52v4.2h2.52q2.22 0 2.24-2.09"></path><rect width="7.69" height="11.37" x="-3.85" y="-5.68" fill="none" rx="0" ry="0" transform="translate(182.99 285.3)"></rect><path fill="#fff" d="M190.4 290.68q-1.13 0-1.62-.45-.5-.45-.5-1.52v-10.92h1.41v10.55q0 .6.19.81.19.22.71.22.42 0 .75-.09v1.29q-.6.11-.94.11"></path><rect width="3.06" height="12.89" x="-1.53" y="-6.45" fill="none" rx="0" ry="0" transform="translate(190.31 284.74)"></rect><path fill="#fff" d="M195.62 282.19q1.32 0 2.01.44.69.44.91 1.18.23.75.23 1.87v4.8h-1.41v-.82q-.57.54-1.14.78t-1.23.24q-.78 0-1.41-.34-.63-.34-1-.98-.37-.63-.37-1.5 0-1.35.84-2.1.84-.74 2.27-.74 1.12 0 2.02.5-.01-.74-.15-1.17-.13-.44-.55-.67-.42-.23-1.25-.23h-1.11v-1.26zm-.44 7.27q.51 0 1.08-.24.56-.24 1.1-.72v-1.89q-.84-.42-1.83-.42-.8 0-1.34.38-.54.39-.54 1.29 0 .84.46 1.22t1.07.38"></path><rect width="6.56" height="8.49" x="-3.28" y="-4.25" fill="none" rx="0" ry="0" transform="translate(195.99 286.94)"></rect><path fill="#fff" d="M205.04 282.01q1.53 0 2.27.81t.74 2.67v4.99h-1.41v-4.99q0-1.17-.39-1.67-.4-.49-1.41-.49-1.17 0-2.34 1.02v6.13h-1.41v-8.29h1.41v.88q1.23-1.06 2.54-1.06"></path><rect width="6.96" height="8.47" x="-3.48" y="-4.24" fill="none" rx="0" ry="0" transform="translate(205.07 286.75)"></rect><path fill="#fff" d="m220.65 282.19-3.67 9.63q-.39 1.02-.71 1.51-.31.5-.74.71-.43.21-1.18.21-.43 0-.88-.12v-1.28q.39.09.78.09.51 0 .8-.3.29-.3.64-1.18l.39-1.01-3.15-8.26h1.47l2.38 6.42 2.45-6.42Z"></path><rect width="7.72" height="12.06" x="-3.86" y="-6.03" fill="none" rx="0" ry="0" transform="translate(217.29 288.72)"></rect><path fill="#fff" d="M225.89 290.74q-1.32 0-2.24-.58-.93-.58-1.39-1.58-.47-.99-.47-2.24 0-1.24.47-2.24.46-1 1.39-1.58.92-.57 2.24-.57 1.32 0 2.24.57.92.58 1.38 1.58.46 1 .46 2.24 0 1.25-.46 2.24-.46 1-1.38 1.58-.92.58-2.24.58m0-1.28q1.24 0 1.93-.87.68-.87.68-2.25t-.68-2.24q-.69-.86-1.93-.86-1.25 0-1.94.86t-.69 2.24q0 1.38.69 2.25.69.87 1.94.87"></path><rect width="8.18" height="8.79" x="-4.09" y="-4.39" fill="none" rx="0" ry="0" transform="translate(226.38 286.85)"></rect><path fill="#fff" d="M239.04 282.19v8.29h-1.41v-.88q-1.23 1.06-2.53 1.06-1.53 0-2.27-.81-.75-.81-.75-2.65v-5.01h1.41v5.01q0 1.17.4 1.66.4.5 1.4.5 1.17 0 2.34-1.02v-6.15Z"></path><rect width="6.96" height="8.47" x="-3.48" y="-4.24" fill="none" rx="0" ry="0" transform="translate(236.06 286.93)"></rect><path fill="#fff" d="M246 282.01v1.32h-.34q-1.29 0-2.51 1.03v6.12h-1.41v-8.29h1.41v.93q1.23-1.11 2.51-1.11Z"></path><rect width="4.26" height="8.47" x="-2.13" y="-4.24" fill="none" rx="0" ry="0" transform="translate(244.37 286.75)"></rect><path fill="#fff" d="M255.05 282.01q1.53 0 2.27.81t.74 2.67v4.99h-1.41v-4.99q0-1.17-.39-1.67-.4-.49-1.41-.49-1.17 0-2.34 1.02v6.13h-1.41v-8.29h1.41v.88q1.23-1.06 2.54-1.06"></path><rect width="6.96" height="8.47" x="-3.48" y="-4.24" fill="none" rx="0" ry="0" transform="translate(255.08 286.75)"></rect><path fill="#fff" d="M261.65 286.45q.03 1.38.69 2.2.66.83 2.1.83 1.09 0 2.4-.62l.43 1.17q-1.36.71-2.95.71-1.32 0-2.25-.56-.93-.55-1.41-1.54-.48-.99-.48-2.31 0-1.4.5-2.38t1.36-1.49q.85-.51 1.92-.51 1.63 0 2.56 1.02.93 1.02.93 2.92v.56zm2.31-3.24q-1.86 0-2.22 2.05h4.23q-.08-1.05-.57-1.55-.5-.5-1.44-.5"></path><rect width="7.27" height="8.79" x="-3.63" y="-4.39" fill="none" rx="0" ry="0" transform="translate(264.31 286.85)"></rect><path fill="#fff" d="m274.62 290.48-2.19-3.22-2.1 3.22h-1.69l2.92-4.33-2.77-3.96h1.69l2.01 2.97 2.03-2.97h1.66l-2.85 4.08 2.99 4.21Z"></path><rect width="7.68" height="8.29" x="-3.84" y="-4.14" fill="none" rx="0" ry="0" transform="translate(272.98 286.83)"></rect><path fill="#fff" d="M279.89 283.6v4.74q0 .6.19.81.18.22.69.22.45 0 .96-.12v1.28q-.67.15-1.2.15-1.14 0-1.59-.47-.46-.46-.46-1.56v-5.05h-1.08v-1.31h1.08v-2.85h1.41v2.85h1.92v1.31Z"></path><rect width="4.41" height="11.24" x="-2.21" y="-5.62" fill="none" rx="0" ry="0" transform="translate(280.1 285.56)"></rect><path fill="#fff" d="m293.96 282.19-3.14 8.43h-1.62l-3.16-8.43h1.47l2.5 6.87 2.48-6.87Z"></path><rect width="7.92" height="8.43" x="-3.96" y="-4.21" fill="none" rx="0" ry="0" transform="translate(290.5 286.9)"></rect><path fill="#fff" d="M298.16 282.19q1.32 0 2.01.44.69.44.91 1.18.23.75.23 1.87v4.8h-1.41v-.82q-.57.54-1.14.78t-1.23.24q-.78 0-1.41-.34-.63-.34-1-.98-.37-.63-.37-1.5 0-1.35.84-2.1.84-.74 2.27-.74 1.12 0 2.02.5-.01-.74-.15-1.17-.13-.44-.55-.67-.42-.23-1.25-.23h-1.11v-1.26zm-.44 7.27q.51 0 1.08-.24.56-.24 1.1-.72v-1.89q-.84-.42-1.83-.42-.8 0-1.34.38-.54.39-.54 1.29 0 .84.46 1.22t1.07.38"></path><rect width="6.56" height="8.49" x="-3.28" y="-4.25" fill="none" rx="0" ry="0" transform="translate(298.53 286.94)"></rect><path fill="#fff" d="M307.14 290.74q-1.93-.02-2.97-1.2-1.05-1.19-1.05-3.21 0-2.03 1.05-3.2 1.04-1.17 2.97-1.18.68 0 1.17.09.48.1 1.04.33v1.36q-.54-.25-1.03-.36-.49-.1-1.07-.1-1.4.01-2.03.83-.63.82-.63 2.21 0 1.43.63 2.27.63.84 2 .85 1.06 0 2.32-.64l.45 1.23q-1.36.72-2.85.72"></path><rect width="6.87" height="8.79" x="-3.44" y="-4.39" fill="none" rx="0" ry="0" transform="translate(307.06 286.85)"></rect><path fill="#fff" d="M314.37 282.19q1.32 0 2.01.44.69.44.92 1.18.22.75.22 1.87v4.8h-1.41v-.82q-.57.54-1.14.78t-1.23.24q-.78 0-1.41-.34-.63-.34-.99-.98-.37-.63-.37-1.5 0-1.35.84-2.1.84-.74 2.26-.74 1.13 0 2.03.5-.02-.74-.15-1.17-.14-.44-.56-.67-.42-.23-1.24-.23h-1.11v-1.26zm-.43 7.27q.51 0 1.07-.24t1.1-.72v-1.89q-.84-.42-1.83-.42-.79 0-1.33.38-.54.39-.54 1.29 0 .84.46 1.22.45.38 1.07.38"></path><rect width="6.55" height="8.49" x="-3.27" y="-4.25" fill="none" rx="0" ry="0" transform="translate(314.75 286.94)"></rect><path fill="#fff" d="M321.54 283.6v4.74q0 .6.19.81.19.22.7.22.45 0 .96-.12v1.28q-.68.15-1.2.15-1.14 0-1.6-.47-.46-.46-.46-1.56v-5.05h-1.08v-1.31h1.08v-2.85h1.41v2.85h1.92v1.31Z"></path><rect width="4.41" height="11.24" x="-2.21" y="-5.62" fill="none" rx="0" ry="0" transform="translate(321.75 285.56)"></rect><path fill="#fff" d="M325.44 278.36h1.41v2.27h-1.41Zm0 3.83h1.41v8.29h-1.41Z"></path><rect width="1.41" height="12.12" x="-.7" y="-6.06" fill="none" rx="0" ry="0" transform="translate(326.64 284.92)"></rect><path fill="#fff" d="M333.14 290.74q-1.32 0-2.24-.58-.93-.58-1.39-1.58-.47-.99-.47-2.24 0-1.24.47-2.24.46-1 1.39-1.58.92-.57 2.24-.57 1.32 0 2.24.57.92.58 1.38 1.58.46 1 .46 2.24 0 1.25-.46 2.24-.46 1-1.38 1.58-.92.58-2.24.58m0-1.28q1.24 0 1.93-.87.68-.87.68-2.25t-.68-2.24q-.69-.86-1.93-.86-1.25 0-1.94.86t-.69 2.24q0 1.38.69 2.25.69.87 1.94.87"></path><rect width="8.18" height="8.79" x="-4.09" y="-4.39" fill="none" rx="0" ry="0" transform="translate(333.63 286.85)"></rect><path fill="#fff" d="M343.35 282.01q1.53 0 2.28.81.74.81.74 2.67v4.99h-1.41v-4.99q0-1.17-.4-1.67-.4-.49-1.4-.49-1.17 0-2.34 1.02v6.13h-1.41v-8.29h1.41v.88q1.23-1.06 2.53-1.06"></path><rect width="6.96" height="8.47" x="-3.48" y="-4.24" fill="none" rx="0" ry="0" transform="translate(343.39 286.75)"></rect><path fill="#fff" d="M354.81 290.74q-.91 0-1.62-.15-.7-.15-1.47-.51v-1.4q1.43.8 3.09.8.84 0 1.21-.34t.37-.89q0-.54-.29-.8-.3-.25-.96-.43l-.97-.24q-1.05-.26-1.65-.81-.6-.56-.6-1.64 0-1.12.73-1.75.74-.63 2.16-.63.74 0 1.37.14.63.14 1.26.4v1.32q-.62-.29-1.22-.45-.6-.15-1.36-.15-.8 0-1.15.3-.35.31-.35.78 0 .51.31.77.3.26.89.41l.99.23q.75.18 1.24.45.48.27.76.75.28.49.28 1.3 0 1.22-.82 1.88-.82.66-2.2.66"></path><rect width="6.11" height="8.79" x="-3.06" y="-4.39" fill="none" rx="0" ry="0" transform="translate(355.27 286.85)"></rect><path fill="#fff" d="M363.59 290.74q-1.32 0-2.24-.58-.93-.58-1.39-1.58-.47-.99-.47-2.24 0-1.24.47-2.24.46-1 1.39-1.58.92-.57 2.24-.57 1.32 0 2.24.57.92.58 1.38 1.58.46 1 .46 2.24 0 1.25-.46 2.24-.46 1-1.38 1.58-.92.58-2.24.58m0-1.28q1.24 0 1.93-.87.68-.87.68-2.25t-.68-2.24q-.69-.86-1.93-.86-1.25 0-1.94.86t-.69 2.24q0 1.38.69 2.25.69.87 1.94.87"></path><rect width="8.18" height="8.79" x="-4.09" y="-4.39" fill="none" rx="0" ry="0" transform="translate(364.08 286.85)"></rect><path fill="#fff" d="M373.44 290.74q-1.32 0-2.24-.58-.92-.58-1.39-1.58-.46-.99-.46-2.24 0-1.24.46-2.24.47-1 1.39-1.58.92-.57 2.24-.57 1.32 0 2.25.57.92.58 1.38 1.58.45 1 .45 2.24 0 1.25-.45 2.24-.46 1-1.38 1.58-.93.58-2.25.58m0-1.28q1.25 0 1.93-.87.68-.87.68-2.25t-.68-2.24q-.68-.86-1.93-.86-1.24 0-1.93.86t-.69 2.24q0 1.38.69 2.25.69.87 1.93.87"></path><rect width="8.17" height="8.79" x="-4.08" y="-4.39" fill="none" rx="0" ry="0" transform="translate(373.94 286.85)"></rect><path fill="#fff" d="M383.66 282.01q1.53 0 2.27.81t.74 2.67v4.99h-1.41v-4.99q0-1.17-.39-1.67-.4-.49-1.41-.49-1.17 0-2.34 1.02v6.13h-1.41v-8.29h1.41v.88q1.23-1.06 2.54-1.06"></path><rect width="6.96" height="8.47" x="-3.48" y="-4.24" fill="none" rx="0" ry="0" transform="translate(383.69 286.75)"></rect><path fill="#fff" fill-rule="evenodd" d="M345.353 13.612a10.858 10.858 0 0 0-10.86-10.86H223.287l24.508 18.464h72.048a4.893 4.893 0 0 1 4.891 4.893 4.886 4.886 0 0 1-4.891 4.886h-59.068l15.865 11.953h43.201a4.887 4.887 0 1 1 0 9.773h-30.228l1.443 1.088s10.858 6.22 10.858 10.865v54.317h32.593a10.865 10.865 0 0 0 10.865-10.867zm-62.989 43.459L208.492 2.753a10.86 10.86 0 0 0-10.863 10.86v89.082c0 4.796 3.059 5.566 10.863 10.865l73.872 54.32c5.997 0 10.865-4.868 10.865-10.869V67.93c-.123-3.948-10.865-10.858-10.865-10.858"></path></svg></svg>